<?xml version="1.0" encoding="UTF-8" standalone="no"?>
<svg width="121px" height="60px" viewBox="0 0 121 60" version="1.1" xmlns="http://www.w3.org/2000/svg" xmlns:xlink="http://www.w3.org/1999/xlink">
    <!-- Generator: Sketch 41.2 (35397) - http://www.bohemiancoding.com/sketch -->
    <title>Empire Logo</title>
    <desc>Created with Sketch.</desc>
    <defs></defs>
    <g id="Symbols" stroke="none" stroke-width="1" fill="none" fill-rule="evenodd">
        <g id="Navigation-DESKTOP" transform="translate(-623.000000, -10.000000)" fill="#000000">
            <g id="Empire-Logo" transform="translate(623.000000, 10.000000)">
                <path d="M78.9068,7.358 C79.3788,7.795 79.9998,8.062 80.7028,8.101 C80.9328,8.114 81.1688,8.103 81.4098,8.066 C82.7978,7.851 84.0438,6.827 84.6708,5.53 C84.7928,5.277 84.8908,5.013 84.9638,4.743 C85.0358,4.473 85.0798,4.195 85.0948,3.91 L85.0948,3.908 C85.1088,3.652 85.0968,3.405 85.0618,3.168 C84.9538,2.45 84.6298,1.84 84.1548,1.398 C83.6768,0.954 83.0488,0.683 82.3368,0.644 C82.1168,0.632 81.8868,0.644 81.6528,0.678 C80.2638,0.888 79.0198,1.911 78.3938,3.213 C78.2728,3.467 78.1728,3.733 78.0998,4.003 C78.0288,4.273 77.9828,4.552 77.9668,4.839 L77.9668,4.841 C77.9518,5.108 77.9648,5.364 78.0018,5.606 C78.1108,6.317 78.4348,6.921 78.9068,7.358" id="Fill-1"></path>
                <path d="M110.2319,13.3342 C110.6619,12.7182 111.1099,12.1902 111.5439,11.8102 C111.9339,11.4692 112.2939,11.2592 112.5909,11.2352 C112.7129,11.2242 112.8259,11.2502 112.9219,11.3162 L112.9299,11.3212 L112.9289,11.3242 C113.1489,11.4702 113.3009,11.6592 113.3879,11.8812 C113.5409,12.2562 113.5279,12.7392 113.3799,13.2802 C113.2219,13.8692 112.9079,14.5142 112.4739,15.1662 C111.4489,16.6992 109.7739,18.2402 107.8549,19.1692 C107.9869,17.4452 109.0239,15.0652 110.2319,13.3342 M120.6399,17.5822 C120.4109,17.4842 120.1819,17.3872 119.6549,17.1632 C119.3689,17.0412 119.0509,16.9052 118.6699,16.7402 L118.6699,16.7402 C118.6619,16.7372 118.6519,16.7332 118.6429,16.7302 C118.4419,16.6612 118.2229,16.7672 118.1539,16.9692 C116.7029,21.1922 114.7089,23.6992 112.8719,24.7472 C112.1649,25.1512 111.4889,25.3332 110.8859,25.3062 C110.3109,25.2812 109.7979,25.0632 109.3909,24.6642 C108.7699,24.0572 108.3809,23.0322 108.3579,21.6342 C110.4819,20.9312 112.5629,19.8952 114.1449,18.3912 C114.4699,18.0812 114.7729,17.7542 115.0489,17.4082 C115.3259,17.0592 115.5789,16.6902 115.8039,16.2992 L115.8039,16.2982 C116.5629,14.9732 116.8399,13.6022 116.7669,12.3902 C116.7529,12.1532 116.7249,11.9222 116.6849,11.6962 C116.6459,11.4812 116.5949,11.2712 116.5329,11.0672 C116.5309,11.0602 116.5289,11.0512 116.5269,11.0442 L116.5259,11.0422 L116.5249,11.0432 C116.0049,9.3652 114.7939,8.5152 113.3769,8.2242 C113.1049,8.1682 112.8289,8.1332 112.5529,8.1172 C112.2789,8.1012 111.9959,8.1042 111.7129,8.1232 L111.7119,8.1232 C108.8499,8.3152 105.2839,10.1732 103.0859,14.3302 C102.6629,15.1302 102.2899,16.0192 101.9799,17.0002 C101.6899,17.9252 101.4579,18.9332 101.2979,20.0252 C100.6209,20.3972 100.0219,20.5512 99.5089,20.5352 C99.1229,20.5232 98.7839,20.4122 98.4959,20.2272 C98.2029,20.0392 97.9579,19.7692 97.7659,19.4432 C97.4459,18.9002 97.2709,18.2012 97.2589,17.4392 C99.5099,16.6332 100.9359,15.3372 101.7259,13.9972 C102.1369,13.3022 102.3769,12.5952 102.4749,11.9352 C102.5729,11.2632 102.5229,10.6342 102.3499,10.1162 C102.1679,9.5682 101.8499,9.1352 101.4249,8.8842 C101.2719,8.7942 101.1199,8.7202 100.9669,8.6612 C99.9449,8.2672 98.8749,8.4892 97.9179,9.0552 C97.0059,9.5952 96.1939,10.4582 95.6399,11.3892 C95.5889,11.1462 95.5499,10.9032 95.5209,10.6712 C95.5059,10.5632 95.4949,10.4602 95.4859,10.3632 C95.4759,10.2632 95.4689,10.1682 95.4639,10.0762 L95.4639,10.0752 C95.4629,10.0692 95.4629,10.0622 95.4619,10.0552 C95.4399,9.8442 95.2499,9.6922 95.0389,9.7152 C93.8499,9.8462 92.8849,9.9542 91.9199,10.0642 C90.8159,10.1882 89.7109,10.3122 88.8279,10.4092 C88.6579,10.4172 88.5069,10.5372 88.4679,10.7102 C88.1389,12.1762 87.8099,13.6462 87.4789,15.1182 C87.1659,16.5292 86.8359,18.0122 86.4939,19.5502 C85.4249,23.6922 84.1799,25.7392 83.1249,26.5442 C82.9389,26.6852 82.7619,26.7842 82.5969,26.8472 C82.4439,26.9052 82.3009,26.9312 82.1719,26.9302 L82.1709,26.9302 C81.9809,26.9282 81.9439,26.4372 81.9649,25.8592 C81.9929,25.0982 82.1649,24.2132 82.2559,23.7572 C82.4559,22.7532 82.6679,21.7262 82.8779,20.6962 C83.0879,19.6802 83.2959,18.6642 83.5039,17.6272 L83.5039,17.6242 C83.7399,16.4392 83.9959,15.2242 84.2509,14.0092 C84.4239,13.1862 84.5959,12.3642 84.7709,11.5122 C84.7849,11.4622 84.7889,11.4082 84.7809,11.3532 C84.7489,11.1422 84.5539,10.9972 84.3419,11.0292 C82.9979,11.2292 82.7599,11.2652 82.4619,11.3082 C81.1449,11.5042 79.8299,11.6992 78.1059,11.9622 C77.9409,11.9772 77.7989,12.0992 77.7669,12.2712 C77.3479,14.4162 76.9269,16.6052 76.5059,18.7972 C76.2369,20.2002 75.9659,21.6032 75.6949,23.0082 L75.6929,23.0162 C75.6389,23.2872 75.5719,23.5992 75.5029,23.9122 C75.2489,25.0862 74.9929,26.2732 74.9789,27.4702 C74.9789,27.4752 74.9789,27.4802 74.9799,27.4852 L74.9789,27.4862 C74.9609,29.4572 75.5639,31.1132 76.7449,31.9522 C76.9849,32.1232 77.2459,32.2582 77.5279,32.3562 C77.8109,32.4542 78.1129,32.5142 78.4329,32.5332 L78.4349,32.5332 C79.6989,32.6062 81.5429,32.0972 83.3089,30.6472 C83.6449,30.3712 83.9829,30.0572 84.3159,29.7022 C84.3369,29.6812 84.3549,29.6602 84.3759,29.6382 C84.3479,29.8232 84.3199,30.0082 84.2909,30.2002 L84.2569,30.4292 C84.2499,30.4682 84.2489,30.5092 84.2559,30.5512 C84.2879,30.7602 84.4829,30.9052 84.6919,30.8732 C85.7479,30.7152 86.7759,30.5942 87.7869,30.4972 C88.7709,30.4002 89.7519,30.3262 90.7299,30.2612 C90.9009,30.2552 91.0529,30.1362 91.0929,29.9622 L92.8409,22.5012 C93.0739,21.5062 93.3139,20.4632 93.5529,19.4202 C93.7379,18.6202 93.9219,17.8202 94.1109,17.0062 C94.1299,17.0442 94.1509,17.0832 94.1699,17.1202 C94.1899,17.9452 94.2859,18.6962 94.4549,19.3692 L94.4549,19.3682 C94.7799,20.6492 95.3729,21.6462 96.2349,22.3232 C97.0959,23.0012 98.2139,23.3472 99.5839,23.3252 C100.1559,23.3152 100.7719,23.2402 101.4329,23.0982 C101.6149,24.5182 102.0929,26.1922 102.9139,27.4442 C103.0969,27.7232 103.2939,27.9792 103.5089,28.2072 C103.7259,28.4382 103.9639,28.6452 104.2219,28.8192 L104.2229,28.8192 C106.1499,30.1162 108.3699,30.3962 110.4409,30.0132 C110.8409,29.9392 111.2359,29.8402 111.6229,29.7182 C112.0119,29.5962 112.3899,29.4542 112.7509,29.2922 L112.7509,29.2922 C114.8079,28.3742 117.0559,26.1162 118.9129,22.6302 C119.2729,21.9542 119.6179,21.2362 119.9389,20.4782 C120.2679,19.7122 120.5739,18.9042 120.8569,18.0572 L120.8569,18.0562 L120.8559,18.0562 C120.9179,17.8682 120.8259,17.6612 120.6399,17.5822" id="Fill-3"></path>
                <path d="M64.3195,24.4202 C64.4405,23.9902 64.5705,23.5622 64.7075,23.1402 C64.8425,22.7292 64.9835,22.3292 65.1295,21.9462 C65.1315,21.9412 65.1335,21.9372 65.1355,21.9332 L65.1725,21.8352 C65.9275,19.8892 66.8835,18.3292 68.0405,17.5962 C68.2495,17.4642 68.4655,17.3612 68.6855,17.2882 C68.8915,17.2202 69.1005,17.1792 69.3155,17.1672 L69.3165,17.1672 C69.3575,17.1672 69.3935,17.1722 69.4245,17.1812 C69.6275,17.2372 69.8015,17.4662 69.9425,17.8212 C70.1165,18.2682 70.2125,18.8792 70.2355,19.5962 C70.2815,21.1372 69.9795,23.1212 69.3745,25.0142 C69.0685,25.9692 68.6875,26.9012 68.2365,27.7412 C67.6035,28.9162 66.8395,29.9042 65.9595,30.5122 C65.1405,31.0792 64.2105,31.3082 63.1875,31.0262 C63.1145,31.0062 63.0405,30.9832 62.9665,30.9572 C63.2815,28.8432 63.7235,26.5412 64.3195,24.4202 M119.7255,33.8522 C115.0155,33.1742 110.1945,32.6342 105.3215,32.3482 C100.4325,32.0602 95.4755,32.0272 90.5055,32.3622 C85.5355,32.6962 80.5475,33.3442 75.5825,34.2102 C70.8275,35.0392 66.0825,36.0732 61.3865,37.2292 C61.4525,36.8922 61.5185,36.5482 61.5855,36.2042 C61.6775,35.7252 61.7705,35.2472 61.8675,34.7572 C63.0605,35.6582 64.8335,35.7212 66.5395,35.2592 C66.9225,35.1562 67.2965,35.0282 67.6535,34.8812 C68.0195,34.7312 68.3735,34.5592 68.7065,34.3702 L68.7075,34.3702 C70.8315,33.1682 72.4385,30.9562 73.5385,28.4002 C73.7485,27.9132 73.9405,27.4072 74.1175,26.8882 C74.2945,26.3702 74.4495,25.8492 74.5855,25.3302 L74.5855,25.3292 C75.2905,22.6332 75.5065,19.8162 75.2355,17.5282 C75.1815,17.0782 75.1085,16.6492 75.0195,16.2452 C74.9305,15.8512 74.8215,15.4752 74.6945,15.1232 C74.6915,15.1142 74.6875,15.1032 74.6845,15.0932 L74.6845,15.0922 L74.6835,15.0932 C74.4255,14.3922 74.0915,13.8552 73.7025,13.4592 C72.9475,12.6892 72.0055,12.4542 70.9985,12.5792 C70.0445,12.6982 69.0375,13.1482 68.0885,13.7702 C67.1515,14.3832 66.2625,15.1702 65.5405,15.9672 L65.5715,15.8092 C65.6275,15.5212 65.6835,15.2332 65.7385,14.9462 C65.7505,14.8942 65.7515,14.8402 65.7405,14.7852 C65.6975,14.5772 65.4945,14.4432 65.2865,14.4862 C64.2865,14.6912 63.2925,14.8942 62.2995,15.1002 C61.2275,15.3222 60.2285,15.5302 59.3325,15.7192 C59.1845,15.7452 59.0585,15.8582 59.0245,16.0132 C58.7365,17.3012 58.4465,18.6002 58.1495,19.9412 C57.8655,21.2282 57.5815,22.5312 57.2975,23.8582 C57.2965,23.8622 57.2955,23.8662 57.2945,23.8702 C56.8515,25.8452 56.1005,28.1422 55.2475,29.9972 C54.7615,31.0542 54.2455,31.9622 53.7385,32.5732 C53.3025,33.0992 52.9045,33.3872 52.5865,33.3152 C52.5605,33.3092 52.5355,33.3012 52.5105,33.2912 C51.8805,32.8992 52.5445,30.6492 53.3265,27.9982 C53.8655,26.1722 54.4565,24.1682 54.7045,22.3482 L54.7055,22.3362 C54.9895,20.3412 54.7015,18.9182 54.0525,18.0052 C53.5855,17.3452 52.9375,16.9512 52.1845,16.7992 C51.4585,16.6512 50.6375,16.7322 49.7925,17.0172 C48.0795,17.5942 46.2315,19.0252 44.8605,21.0992 C44.6605,20.5802 44.4005,20.1552 44.0945,19.8192 C43.4875,19.1552 42.7065,18.8412 41.8335,18.8272 C40.9975,18.8162 40.0825,19.0852 39.1685,19.5922 C38.1105,20.1782 37.0425,21.0882 36.0925,22.2472 C36.1455,21.9212 36.2005,21.5932 36.2555,21.2662 L36.2785,21.1332 C36.2875,21.0842 36.2895,21.0342 36.2785,20.9822 C36.2395,20.7742 36.0375,20.6372 35.8285,20.6772 L29.6675,21.8582 C29.5135,21.8812 29.3815,21.9982 29.3485,22.1612 L24.7425,44.8742 C24.7315,44.9292 24.7305,44.9872 24.7445,45.0452 C24.7945,45.2522 25.0015,45.3792 25.2095,45.3302 C26.6545,44.9812 27.9275,44.5382 29.3445,44.0452 C30.2115,43.7432 31.1315,43.4242 32.1335,43.1072 L32.1355,43.1072 C32.2655,43.0662 32.3695,42.9582 32.3975,42.8162 L35.3535,27.9772 L35.3535,27.9772 L35.3545,27.9712 C35.3805,27.8302 35.4125,27.6892 35.4495,27.5472 C35.6885,26.6282 36.1105,25.9212 36.5615,25.4632 C36.9635,25.0542 37.3595,24.8542 37.6265,24.9042 C37.6285,24.9042 37.6345,24.9062 37.6465,24.9092 C37.7585,24.9382 37.8395,25.0402 37.8865,25.2332 C37.9585,25.5262 37.9495,25.9692 37.8475,26.5852 L37.8465,26.5912 L34.8675,41.6302 C34.8515,41.6942 34.8545,41.7642 34.8745,41.8332 C34.9395,42.0352 35.1545,42.1472 35.3575,42.0842 C35.9005,41.9132 36.4005,41.7562 36.8725,41.6062 C38.5355,41.0802 39.8775,40.6562 41.6675,40.1552 C41.8135,40.1252 41.9365,40.0112 41.9675,39.8542 L44.6295,26.7672 C44.6305,26.7632 44.6315,26.7592 44.6325,26.7552 C44.9785,25.2752 45.6025,24.0172 46.3355,23.4532 C46.4605,23.3552 46.5885,23.2802 46.7155,23.2332 C46.8265,23.1912 46.9375,23.1682 47.0485,23.1672 C47.0565,23.1672 47.0645,23.1682 47.0725,23.1682 L47.0735,23.1682 L47.0735,23.1672 L47.0745,23.1672 C47.0865,23.1672 47.1005,23.1692 47.1145,23.1722 C47.1525,23.1792 47.1855,23.2082 47.2135,23.2632 C47.2715,23.3792 47.3015,23.5632 47.2965,23.8272 C47.2925,24.0572 47.2585,24.3382 47.1915,24.6762 C47.1905,24.6802 47.1895,24.6852 47.1885,24.6882 C46.9055,25.9102 46.5805,27.0212 46.2785,28.0512 C45.8975,29.3562 45.5535,30.5352 45.3735,31.6552 C45.2965,32.1332 45.2395,32.5852 45.2005,33.0122 C45.0365,34.7912 45.1765,36.2252 45.6085,37.2652 C46.0705,38.3762 46.8525,39.0452 47.9425,39.2202 C48.0205,39.2332 48.0955,39.2432 48.1675,39.2482 C49.0375,39.3292 50.1825,39.3122 51.5325,38.6792 C52.5755,38.1912 53.7395,37.3332 54.9805,35.8632 L54.9355,36.0912 C54.7345,37.0942 54.5335,38.0972 54.3375,39.1182 C50.8175,40.1072 47.3585,41.1892 43.9545,42.3132 C40.4425,43.4732 37.0325,44.6652 33.6775,45.8452 C32.6245,46.2162 31.8315,46.4992 31.0785,46.7692 C24.0865,49.2672 20.2815,50.6262 16.3755,48.9932 C14.3495,48.1462 13.3575,45.8082 13.1945,43.1262 C13.1625,42.5992 13.1635,42.0522 13.1965,41.4952 C13.2285,40.9342 13.2905,40.3762 13.3825,39.8312 L13.3835,39.8252 C13.8635,36.9822 15.1485,34.1302 17.0415,32.4052 C17.4025,32.0772 17.7855,31.7902 18.1915,31.5512 C18.5705,31.3292 18.9655,31.1512 19.3775,31.0232 C21.0065,31.2642 22.4345,31.1882 23.6205,30.9262 C24.7955,30.6682 25.7385,30.2242 26.4105,29.7212 C27.1245,29.1882 27.5455,28.5702 27.6325,28.0102 C27.6585,27.8382 27.6555,27.6712 27.6195,27.5132 C27.4025,26.5292 26.5715,26.0462 25.1125,26.0312 C23.8375,26.0172 22.0375,26.3702 19.7015,27.0622 C17.8975,26.4262 17.2175,24.5262 17.2735,22.3522 C17.2845,21.8982 17.3275,21.4402 17.3965,20.9832 C17.4665,20.5272 17.5655,20.0602 17.6895,19.5922 L17.6895,19.5912 C18.3205,17.2272 19.5765,14.9822 21.0555,13.9692 C21.3265,13.7842 21.6055,13.6412 21.8885,13.5482 C22.1635,13.4592 22.4405,13.4182 22.7175,13.4342 L22.7195,13.4332 C23.0965,13.4542 23.4035,13.5892 23.6405,13.8082 C23.8845,14.0332 24.0615,14.3512 24.1745,14.7312 C24.2935,15.1352 24.3395,15.6022 24.3135,16.1012 C24.2425,17.3982 23.6845,18.8852 22.6625,19.9982 C22.5975,20.0612 22.5545,20.1502 22.5485,20.2492 C22.5345,20.4612 22.6955,20.6442 22.9085,20.6572 C24.2685,20.7432 25.4325,20.5872 26.4055,20.2532 C27.6445,19.8302 28.5755,19.1202 29.2135,18.2582 C29.8535,17.3942 30.1975,16.3812 30.2615,15.3532 C30.3095,14.5942 30.2055,13.8232 29.9565,13.0962 C29.8425,12.7622 29.6975,12.4562 29.5215,12.1732 C28.4475,10.4412 26.3595,9.7962 24.0015,9.7752 C21.7175,9.7532 19.1685,10.3172 17.0815,11.0322 C15.6925,11.5062 14.4985,12.0512 13.7125,12.5372 C10.9855,14.2282 9.3065,16.5702 8.6335,19.0002 C8.5025,19.4752 8.4085,19.9532 8.3545,20.4282 C8.2985,20.9092 8.2815,21.3862 8.3015,21.8552 L8.3005,21.8562 C8.4075,24.2892 9.5025,26.5772 11.4995,28.0322 C11.8865,28.3142 12.3085,28.5652 12.7665,28.7802 C12.8345,28.8122 12.9025,28.8432 12.9725,28.8732 C9.4005,29.8632 6.7325,31.5332 4.8585,33.5572 C4.4495,33.9992 4.0795,34.4562 3.7455,34.9252 C3.4135,35.3942 3.1155,35.8792 2.8525,36.3762 L2.8525,36.3772 C1.4395,39.0402 -0.0145,44.7402 1.5525,49.3762 C1.7135,49.9072 1.9035,50.4252 2.1225,50.9252 L2.1235,50.9252 C3.6175,54.3352 6.9615,57.2742 11.0205,58.6032 C11.8045,58.8592 12.6205,59.0572 13.4605,59.1862 C14.2975,59.3142 15.1515,59.3752 16.0135,59.3572 L16.0145,59.3572 C22.2975,59.2302 26.3925,57.5802 31.6155,55.4742 C32.7255,55.0272 33.8855,54.5592 35.0945,54.0952 C37.9875,52.9822 40.9535,51.8892 43.9695,50.8632 C46.8075,49.8982 49.7125,48.9822 52.6785,48.1542 C52.5815,48.6422 52.4835,49.1312 52.3845,49.6192 C52.0895,51.0912 51.7945,52.5642 51.5035,54.0662 C51.4875,54.1262 51.4855,54.1902 51.5015,54.2552 C51.5525,54.4622 51.7605,54.5882 51.9675,54.5372 C53.0115,54.2802 54.0575,54.0222 55.1035,53.7642 C55.9905,53.5452 56.9965,53.2952 58.2405,52.9842 C58.3865,52.9512 58.5065,52.8342 58.5355,52.6792 C58.7545,51.5252 58.9845,50.3362 59.2145,49.1492 C59.3975,48.2012 59.5805,47.2542 59.7605,46.3082 C63.3865,45.4552 67.0615,44.7172 70.7485,44.1362 C74.5095,43.5462 78.2705,43.1192 81.9855,42.9042 C87.3415,42.5952 92.6315,42.7882 97.6995,43.3732 C98.6885,43.4862 99.6665,43.6152 100.6315,43.7572 C101.5905,43.8982 102.5425,44.0542 103.4895,44.2232 C103.5695,44.2422 103.6555,44.2352 103.7365,44.1992 L119.7415,34.6152 C119.7575,34.6052 119.7795,34.6012 119.7985,34.5942 L119.7985,34.5942 C119.9285,34.5482 120.0295,34.4332 120.0485,34.2882 C120.0805,34.0772 119.9355,33.8832 119.7255,33.8522" id="Fill-5"></path>
            </g>
        </g>
    </g>
</svg>